<?xml version="1.0" encoding="UTF-8" standalone="no"?>
<!-- Created with Inkscape (http://www.inkscape.org/) -->

<svg
   xmlns:dc="http://purl.org/dc/elements/1.1/"
   xmlns:cc="http://creativecommons.org/ns#"
   xmlns:rdf="http://www.w3.org/1999/02/22-rdf-syntax-ns#"
   xmlns:svg="http://www.w3.org/2000/svg"
   xmlns="http://www.w3.org/2000/svg"
   xmlns:sodipodi="http://sodipodi.sourceforge.net/DTD/sodipodi-0.dtd"
   xmlns:inkscape="http://www.inkscape.org/namespaces/inkscape"
   version="1.1"
   id="svg133"
   width="40"
   height="40"
   viewBox="0 0 40 40"
   sodipodi:docname="pluginIcom.svg"
   inkscape:version="0.92.4 (5da689c313, 2019-01-14)">
  <metadata
     id="metadata139">
    <rdf:RDF>
      <cc:Work
         rdf:about="">
        <dc:format>image/svg+xml</dc:format>
        <dc:type
           rdf:resource="http://purl.org/dc/dcmitype/StillImage" />
        <dc:title></dc:title>
      </cc:Work>
    </rdf:RDF>
  </metadata>
  <defs
     id="defs137" />
  <sodipodi:namedview
     pagecolor="#ffffff"
     bordercolor="#666666"
     borderopacity="1"
     objecttolerance="10"
     gridtolerance="10"
     guidetolerance="10"
     inkscape:pageopacity="0"
     inkscape:pageshadow="2"
     inkscape:window-width="1920"
     inkscape:window-height="1016"
     id="namedview135"
     showgrid="false"
     inkscape:pagecheckerboard="true"
     inkscape:zoom="14.361764"
     inkscape:cx="23.841807"
     inkscape:cy="26.666666"
     inkscape:window-x="0"
     inkscape:window-y="27"
     inkscape:window-maximized="1"
     inkscape:current-layer="svg133" />
  <path
     inkscape:connector-curvature="0"
     id="path3858"
     d="m 1.8870054,20.112995 v -18 h 18.0000006 18 v 18 18 h -18 -18.0000006 z m 12.8103656,6.750001 c 0.296631,-3.584047 0.174932,-3.750001 -2.750001,-3.750001 -2.8017463,0 -3.0603643,0.281685 -3.0603643,3.333334 0,3.942136 0.7064588,4.852842 3.4588483,4.458849 1.57125,-0.224918 2.112602,-1.155486 2.351517,-4.042182 z m 15.689635,1.249999 c 0,-2.167046 -0.499431,-2.541335 -3.75,-2.810365 -3.598541,-0.297829 -3.75,-0.184322 -3.75,2.810365 0,2.994687 0.151459,3.108195 3.75,2.810366 3.250569,-0.269031 3.75,-0.64332 3.75,-2.810366 z m -9.500001,-8 c 0,-0.55 -0.45,-1 -0.999999,-1 -0.55,0 -1,0.45 -1,1 0,0.55 0.45,1 1,1 0.549999,0 0.999999,-0.45 0.999999,-1 z m 9.810366,-6.75 c -0.26903,-3.250569 -0.643319,-3.7500002 -2.810366,-3.7500002 -2.167045,0 -2.541334,0.4994312 -2.810364,3.7500002 -0.29783,3.598541 -0.184323,3.75 2.810364,3.75 2.994688,0 3.108196,-0.151459 2.810366,-3.75 z m -13.810365,-1.25 c 0,-2.7669829 -0.274291,-2.9999997 -3.531385,-2.9999997 -2.216518,0 -3.7457038,0.5585063 -4.1069893,1.4999997 -1.0836443,2.823933 0.4460415,4.500001 4.1069893,4.500001 3.257094,0 3.531385,-0.233018 3.531385,-3.000001 z"
     style="fill:#a5d4fd;stroke-width:1" />
  <path
     inkscape:connector-curvature="0"
     id="path3856"
     d="m 1.8870054,20.112995 v -18 h 18.0000006 18 v 18 18 h -18 -18.0000006 z m 32.9999996,0 v -15 H 19.887006 4.8870054 v 15 15 H 19.887006 34.887005 Z M 6.5536721,33.446329 C 6.1870054,33.079663 5.8870054,29.938236 5.8870054,26.46538 c 0,-5.802586 0.1913809,-6.362315 2.3616273,-6.907012 1.298895,-0.326002 3.8863953,-0.447075 5.7499993,-0.269052 l 3.388374,0.323679 0.293809,7.250001 0.29381,7.249999 h -5.377143 c -2.957429,0 -5.6771433,-0.3 -6.0438099,-0.666666 z m 8.1408309,-6.583333 c -0.273829,-3.784668 -0.581223,-4.250001 -2.807497,-4.250001 -2.2262755,0 -2.5336683,0.465333 -2.8074985,4.250001 -0.3007133,4.156231 -0.2387708,4.249999 2.8074985,4.249999 3.046268,0 3.108211,-0.09377 2.807497,-4.249999 z m 4.64917,4.933371 c -0.332214,-1.323645 -0.45837,-3.931394 -0.280347,-5.794999 l 0.323679,-3.388373 7.301242,-0.294844 7.301243,-0.294843 -0.301242,5.794843 -0.301242,5.794845 -6.719654,0.294997 c -6.374321,0.279839 -6.750697,0.171318 -7.323679,-2.111626 z m 11.543333,-3.683372 c 0,-2.837226 -0.218735,-2.999999 -4.031386,-2.999999 -4.167684,0 -5.743243,1.538968 -4.606988,4.499999 0.379935,0.990092 1.946027,1.5 4.606988,1.5 3.812651,0 4.031386,-0.162774 4.031386,-3 z M 22.553673,20.446328 C 22.187006,20.079662 21.887006,16.682205 21.887006,12.896424 V 6.0131874 l 5.75,0.2999038 5.75,0.2999039 0.301843,6.4089419 c 0.209612,4.450638 -0.09595,6.661256 -1,7.234687 -1.561199,0.990252 -9.191804,1.133078 -10.135176,0.189704 z m 8.140831,-7.083333 c 0.299565,-4.1403639 0.228624,-4.2499997 -2.750001,-4.2499997 -2.878258,0 -3.057497,0.224721 -3.057497,3.8333327 0,4.442387 0.641534,5.362137 3.458849,4.95885 1.629308,-0.233229 2.103195,-1.149706 2.348649,-4.542183 z M 6.0857635,12.407839 6.3870055,6.6129951 13.10666,6.3179968 c 6.37432,-0.2798377 6.750696,-0.171318 7.323679,2.1116277 0.332213,1.3236436 0.458369,3.9313925 0.280346,5.7949975 l -0.323679,3.388373 -7.301242,0.294844 -7.3012424,0.294844 z M 17.387006,12.112995 c 0,-2.2262749 -0.465333,-2.5336677 -4.250001,-2.8074979 C 8.9807737,9.0047838 8.8870057,9.0667263 8.8870057,12.112995 c 0,3.046269 0.093768,3.108211 4.2499993,2.807498 3.784668,-0.273829 4.250001,-0.581223 4.250001,-2.807498 z"
     style="fill:#8cc6fd;stroke-width:1" />
  <path
     inkscape:connector-curvature="0"
     id="path3854"
     d="m 2.2203387,19.675143 v -18 h 18.0000003 18 v 18 18 h -18 H 2.2203387 Z M 35.020339,34.475144 c 1.669242,-1.669242 1.669242,-27.9307587 0,-29.6000009 -1.669242,-1.6692423 -27.930758,-1.6692423 -29.6000003,0 -1.6692422,1.6692422 -1.6692422,27.9307589 0,29.6000009 1.6692423,1.669242 27.9307583,1.669242 29.6000003,0 z M 7.3276763,32.304478 C 6.6063761,31.435363 6.2345224,28.664774 6.415264,25.506319 l 0.3050748,-5.331175 5.7968592,-0.301302 5.79686,-0.301302 -0.29686,6.801301 -0.296859,6.801303 -4.587588,0.298158 C 10.023042,33.675409 8.152954,33.298876 7.3276763,32.304478 Z m 8.7230287,-3.95843 c 0.19071,-1.006002 0.0662,-2.946878 -0.276688,-4.313057 -0.501269,-1.997211 -1.155483,-2.422616 -3.338556,-2.170905 -2.428074,0.27996 -2.7479822,0.769554 -3.0259375,4.630951 l -0.310815,4.317895 3.3026245,-0.317895 c 2.251584,-0.216726 3.412977,-0.899994 3.649372,-2.146989 z m 4.8363,4.662429 c -0.366666,-0.366666 -0.666666,-3.087228 -0.666666,-6.045691 v -5.379022 l 6.75,0.295689 6.75,0.29569 0.311109,4.323906 c 0.17111,2.378148 -0.22149,4.965648 -0.872445,5.749999 -1.212708,1.461225 -10.966602,2.064825 -12.271998,0.759429 z m 10.146692,-5.575144 c -0.338003,-3.496768 -2.08837,-4.407951 -6.392453,-3.327694 -1.883902,0.47283 -2.420905,1.268839 -2.420905,3.588556 0,2.87244 0.166108,2.980948 4.563358,2.980948 4.543815,0 4.562017,-0.01388 4.25,-3.24181 z M 22.423479,12.976445 22.720338,6.1751431 27.307927,5.8769849 c 5.913845,-0.3843547 7.11394,1.0389658 6.717487,7.9669821 l -0.305075,5.331176 -5.79686,0.301302 -5.796859,0.301302 z m 8.607675,-0.119196 0.310816,-4.3178947 -3.302626,0.3178943 c -3.575363,0.3441465 -4.475127,2.0675584 -3.372683,6.4600464 0.501268,1.997211 1.155482,2.422616 3.338556,2.170905 2.428074,-0.27996 2.747982,-0.769554 3.025937,-4.630951 z M 6.8870054,17.008476 C 5.6295231,15.750994 6.2021704,7.9351108 7.639163,6.7425129 c 0.817325,-0.6783193 3.678935,-1.0481854 6.75,-0.8724446 l 5.331175,0.3050748 0.299904,5.7499999 0.299904,5.75 H 13.93691 c -3.510781,0 -6.683238,-0.3 -7.0499046,-0.666667 z m 9.7515456,-1.940322 c 0.938001,-0.359944 1.581787,-1.784443 1.581787,-3.5 0,-2.7620869 -0.203647,-2.8930107 -4.499999,-2.8930107 -4.2745102,0 -4.5,0.141975 -4.5,2.8333327 0,1.558334 0.3,3.133335 0.6666668,3.5 0.8325812,0.832583 4.6494692,0.866321 6.7515452,0.05968 z"
     style="fill:#6db5fd;stroke-width:1" />
  <path
     inkscape:connector-curvature="0"
     id="path3852"
     d="m 1.8870054,20.112995 v -18 h 18.0000006 18 v 18 18 h -18 -18.0000006 z m 33.5000006,0 v -15.5 h -15.5 H 4.3870054 L 4.1083043,19.06701 c -0.1532856,7.949709 -0.050391,15.048981 0.2286542,15.776161 0.3965705,1.033446 3.8419632,1.261845 15.7787015,1.045986 l 15.271346,-0.276162 z m -28.297718,6.750001 0.2977175,-6.25 h 4.9999995 c 3.386667,0 4.967734,0.403332 4.9,1.249999 -0.055,0.6875 -0.167499,3.5 -0.249999,6.25 l -0.15,5.000001 H 11.839289 6.7915706 Z m 7.616918,4.382901 c 0.826605,-0.52413 1.20001,-2.292087 1,-4.734687 -0.305233,-3.727636 -0.472354,-3.898215 -3.8192,-3.898215 -3.2322063,0 -3.5243493,0.253664 -3.8182308,3.315324 -0.4870778,5.074368 2.8299538,7.731807 6.6374308,5.317578 z m 5.582781,0.47226 c -0.958979,-2.499057 0.03072,-9.110545 1.348018,-9.005161 0.687501,0.055 3.500001,0.167499 6.25,0.249999 l 5.000001,0.15 v 5 5.000001 H 26.85562 c -4.23664,0 -6.190657,-0.415059 -6.566633,-1.394839 z m 10.587242,-1.092176 c 0.719877,-0.867399 0.965457,-2.55742 0.589367,-4.055881 -0.582016,-2.318938 -1.055018,-2.539108 -4.861667,-2.262987 -3.541931,0.25692 -4.269598,0.677675 -4.546004,2.628609 -0.180995,1.277499 -0.08262,2.964999 0.218614,3.75 0.730037,1.902445 7.007412,1.858837 8.59969,-0.05974 z M 22.667925,19.414086 c -0.220147,-0.4406 -0.219267,-3.388591 0.002,-6.551091 l 0.402224,-5.7499999 h 4.955168 4.955168 l -0.297718,6.2499999 -0.297717,6.25 -4.659407,0.301091 c -2.562674,0.1656 -4.839527,-0.0594 -5.059674,-0.5 z M 31.68757,14.027404 C 32.050089,9.7027181 30.038135,7.6072641 26.399992,8.5203798 24.265473,9.0561101 23.887006,9.7255473 23.887006,12.96538 c 0,4.669666 0.591054,5.324399 4.46406,4.945008 2.694492,-0.263946 3.069744,-0.70066 3.336504,-3.882984 z M 12.137006,17.366011 6.8870054,17.008476 V 12.013018 7.0175603 l 6.2499996,0.2977173 6.25,0.2977175 v 4.9166669 c 0,5.435065 0.142791,5.339812 -7.249999,4.836349 z m 5.25,-5.253016 c 0,-3.2933637 -0.211691,-3.517745 -3.585591,-3.800564 -4.353848,-0.3649627 -6.4210196,1.6459329 -5.4929991,5.34346 0.5820158,2.318937 1.0550176,2.539107 4.8616671,2.262986 4.09441,-0.296995 4.216923,-0.407566 4.216923,-3.805882 z"
     style="fill:#50a6fd;stroke-width:1" />
  <path
     inkscape:connector-curvature="0"
     id="path3850"
     d="m 1.8870054,20.112995 v -18 h 18.0000006 18 v 18 18 h -18 -18.0000006 z m 34.0000006,0 v -16 h -16 -16.0000006 v 16 16.000001 h 16.0000006 16 z M 7.5536721,32.446329 c -0.3666666,-0.366666 -0.6666667,-3.066666 -0.6666667,-6 v -5.333334 h 5.0000006 5 v 6 6.000001 h -4.333333 c -2.383335,0 -4.6333341,-0.3 -5.0000009,-0.666667 z m 8.1407289,-5.647121 0.307397,-4.813787 -3.807396,0.313788 c -3.5123346,0.289468 -3.8322313,0.57303 -4.1278551,3.658982 -0.4890255,5.104829 0.3431985,6.327216 4.0635831,5.968676 3.131292,-0.301769 3.268728,-0.49949 3.564271,-5.127659 z m 5.192604,1.363691 v -5.049904 h 6.054792 6.054791 l -0.304791,4.75 -0.304791,4.75 -5.75,0.299904 -5.750001,0.299904 z m 10.500001,-0.0499 c 0,-3.465994 -0.04615,-3.50296 -4.75,-3.80479 l -4.75,-0.304791 v 3.388124 c 0,4.379102 0.601288,4.87637 5.463721,4.518513 3.889642,-0.286263 4.036279,-0.424209 4.036279,-3.797056 z m -8.5,-15.05479 V 7.0034126 l 4.75,0.3047913 4.75,0.3047912 0.299904,5.7499999 0.299904,5.75 H 27.93691 22.887006 Z m 8.5,0.0548 c 0,-4.4761907 -0.01852,-4.5000002 -3.500001,-4.5000002 -3.472708,0 -3.502396,0.037538 -3.807395,4.8137872 l -0.307397,4.813787 3.807397,-0.313787 c 3.799316,-0.313121 3.807396,-0.323337 3.807396,-4.813787 z m -24.3047917,-0.75 0.3047912,-4.75 5.7499995,-0.2999041 5.750001,-0.2999038 v 5.0499039 5.049904 H 12.832214 6.777423 Z m 10.6151567,0 C 17.388512,8.6312013 17.365163,8.6129988 12.887006,8.6129988 c -3.9472955,0 -4.5404196,0.285285 -4.8290818,2.3227262 -0.5898383,4.163203 0.4596435,5.177274 5.3580618,5.177274 h 4.591751 z"
     style="fill:#389bfd;stroke-width:1" />
  <path
     inkscape:connector-curvature="0"
     id="path3848"
     d="m 1.8870054,20.112995 v -18 h 18.0000006 18 v 18 18 h -18 -18.0000006 z m 34.5000006,0 v -16.5 h -16.5 H 3.3870054 L 3.1098386,19.071008 c -0.1524417,8.501908 -0.049769,16.050602 0.228161,16.774877 0.3954241,1.030458 4.0442909,1.257079 16.7771674,1.041987 l 16.271839,-0.274877 z"
     style="fill:#0d8cfe;stroke-width:1" />
  <rect
     style="fill:#a5d4fd;fill-opacity:1"
     id="rect3906"
     width="2.7851732"
     height="2.2977679"
     x="18.59103"
     y="18.902313" />
</svg>
